<?xml version="1.0" encoding="UTF-8"?>
<svg id="Calque_6" data-name="Calque 6" xmlns="http://www.w3.org/2000/svg" width="25.21mm" height="4.91mm" viewBox="0 0 71.45 13.92">
  <g>
    <g>
      <path d="M8.56,6.44v3.31h-1.85v-3.04c0-.25-.07-.45-.2-.59-.14-.14-.32-.21-.56-.21-.22,0-.4.07-.54.21-.14.14-.2.34-.2.59v3.04h-1.85v-3.04c0-.25-.07-.45-.2-.59-.14-.14-.32-.21-.56-.21-.22,0-.4.07-.54.21-.14.14-.2.34-.2.59v3.04H0v-5.38h1.69v.42c.39-.37.88-.55,1.47-.55.67,0,1.19.23,1.56.69.46-.46,1.05-.69,1.76-.69.64,0,1.14.2,1.52.6.37.4.56.93.56,1.6Z" fill="#1d5a85"/>
      <path d="M14.82,6.63v3.12h-1.69v-.44c-.4.38-.92.57-1.55.57-.57,0-1.02-.16-1.35-.48-.33-.32-.5-.72-.5-1.19,0-.5.19-.89.56-1.18.38-.28.89-.42,1.54-.42h1.13v-.09c0-.46-.27-.69-.82-.69-.24,0-.45.05-.65.15s-.43.27-.69.51l-.86-1.17c.71-.72,1.52-1.08,2.43-1.08.76,0,1.36.21,1.79.62.43.41.65,1,.65,1.77ZM12.97,7.78v-.04h-.87c-.33,0-.49.14-.49.41,0,.13.05.23.15.31s.23.11.4.11c.24,0,.44-.07.59-.22.15-.14.23-.33.23-.57Z" fill="#1d5a85"/>
      <path d="M19.84,4.37v1.63h-.44c-.43,0-.75.1-.96.31-.21.21-.32.53-.32.98v2.45h-1.85v-5.38h1.69v.57c.34-.44.8-.66,1.36-.66.18,0,.35.03.53.09Z" fill="#1d5a85"/>
      <path d="M21.03,3.24c-.22-.21-.33-.47-.33-.77s.11-.57.33-.78.49-.32.8-.32.58.11.81.32c.22.21.33.47.33.78s-.11.56-.33.77c-.22.21-.49.32-.81.32s-.58-.1-.8-.31ZM20.92,9.75v-5.38h1.85v5.38h-1.85Z" fill="#1d5a85"/>
      <path d="M29.31,7.7h-3.44c.2.41.6.61,1.2.61.47,0,.94-.14,1.41-.42l.67,1.26c-.63.48-1.34.72-2.14.72-.87,0-1.6-.27-2.17-.81-.57-.54-.86-1.21-.86-2.01s.28-1.46.83-2c.56-.54,1.23-.82,2.04-.82.76,0,1.38.25,1.85.74.48.49.72,1.1.72,1.81,0,.31-.04.61-.12.91ZM25.81,6.5h1.87c0-.24-.1-.43-.27-.58-.17-.15-.38-.23-.62-.23s-.44.07-.61.21-.29.34-.37.6Z" fill="#1d5a85"/>
      <path d="M41.5,8.84l.86-1.1c.47.44.96.67,1.48.67.32,0,.47-.08.47-.24,0-.09-.1-.18-.31-.27l-.6-.25c-.55-.22-.95-.46-1.19-.72-.24-.26-.37-.59-.37-1.01,0-.52.19-.94.56-1.24.38-.3.88-.45,1.52-.45.85,0,1.52.26,2.02.79l-.87,1.13c-.36-.31-.74-.46-1.14-.46-.25,0-.38.07-.38.2,0,.1.12.2.37.29l.54.22c.57.22.97.46,1.21.7.24.25.36.58.36.98,0,.55-.21.99-.62,1.31-.42.32-.96.47-1.6.47-.48,0-.92-.09-1.33-.27s-.73-.43-.98-.76Z" fill="#1d5a85"/>
      <path d="M47,3.24c-.22-.21-.33-.47-.33-.77s.11-.57.33-.78.49-.32.8-.32.58.11.81.32c.22.21.33.47.33.78s-.11.56-.33.77c-.22.21-.49.32-.81.32s-.58-.1-.8-.31ZM46.89,9.75v-5.38h1.85v5.38h-1.85Z" fill="#1d5a85"/>
      <path d="M58.5,6.44v3.31h-1.85v-3.04c0-.25-.07-.45-.2-.59-.14-.14-.32-.21-.56-.21-.22,0-.4.07-.54.21-.14.14-.2.34-.2.59v3.04h-1.85v-3.04c0-.25-.07-.45-.2-.59-.14-.14-.32-.21-.56-.21-.22,0-.4.07-.54.21-.14.14-.2.34-.2.59v3.04h-1.85v-5.38h1.69v.42c.39-.37.88-.55,1.47-.55.67,0,1.19.23,1.56.69.46-.46,1.05-.69,1.76-.69.64,0,1.14.2,1.52.6.37.4.56.93.56,1.6Z" fill="#1d5a85"/>
      <path d="M59.4,7.06c-.01-.77.27-1.43.85-1.99s1.27-.84,2.08-.82c.8-.01,1.5.26,2.08.82.58.56.87,1.23.85,1.99.01.77-.27,1.43-.85,2-.58.56-1.28.84-2.08.82-.8.01-1.49-.26-2.08-.82s-.86-1.23-.85-2ZM63.07,7.86c.19-.21.29-.48.29-.8s-.1-.59-.3-.8-.44-.32-.74-.32c-.31,0-.56.1-.75.31s-.29.48-.29.81.1.61.29.81c.19.2.44.31.75.31s.55-.11.74-.32Z" fill="#1d5a85"/>
      <path d="M71.45,6.44v3.31h-1.85v-3.04c0-.24-.07-.43-.22-.58-.15-.15-.34-.22-.56-.22s-.42.07-.56.22c-.14.15-.22.34-.22.58v3.04h-1.85v-5.38h1.69v.44c.4-.38.91-.57,1.52-.57s1.12.2,1.49.6c.37.4.56.93.56,1.6Z" fill="#1d5a85"/>
    </g>
    <g>
      <path d="M37.07,9.43h.05s-.03,0-.05,0Z" fill="#ffd402"/>
      <path d="M36.49,9.74h-.01s0,.02,0,.03v-.03Z" fill="#ffd402"/>
      <polygon points="34.66 9.6 34.65 9.6 34.64 9.64 34.66 9.6" fill="#ffd402"/>
      <path d="M36.04,4.49c.04.06-.09.06-.02.13,0-.03.08-.09.02-.13Z" fill="#ffd402"/>
      <path d="M38.16,6.16s0,0,0,0c0,0,.02,0,.01.02,0-.01,0-.02,0-.03Z" fill="#ffd402"/>
      <polygon points="37.97 5.8 37.97 5.81 37.98 5.82 37.97 5.8" fill="#ffd402"/>
      <path d="M36.84,4.82s.02,0,.03,0c-.01,0-.02,0-.03,0Z" fill="#ffd402"/>
      <path d="M38.34,7.55s.08-.01.07-.03c0,.04-.07,0-.09-.03.04-.05-.02-.07-.01-.09l-.02.03s-.03-.04-.04-.08c.03,0,.02.04.03.02-.07-.05.08-.09.04-.16.03-.03.08,0,.09-.03-.05-.07.05-.08,0-.15-.05.02-.04.03-.09-.02l.04.12-.08-.08s.03.08.03.1c-.04-.04-.03-.03-.07-.02.08-.05-.05-.1,0-.15h.13c.06-.1-.08-.16-.06-.27l-.02.04c-.05,0-.02-.07-.04-.1.04,0,.06-.03.08-.05-.03,0-.02-.08-.11-.07l.04-.06c0-.1-.14-.07-.16-.15.05,0,.07-.04.12,0,0-.03-.01-.06-.04-.05.02-.03-.08-.06-.05-.1-.02,0-.07,0-.07-.02,0,0,.02,0,.02,0-.02,0-.05-.04-.08,0,.08-.13-.11-.22-.05-.34-.05-.05-.1-.11-.13-.15.01,0,.02-.01.02,0-.02-.09-.13.04-.15-.06.03-.08.06.01.06-.03.1-.1-.08-.08-.06-.17h.02c0-.06-.12-.04-.16-.1,0,0,.01,0,.02-.02-.09.02-.18-.03-.25-.06.05-.03.04,0,.07-.06-.03-.01-.05.08-.11.05,0-.04-.02-.09.01-.14l.05.03c.02-.08-.07-.05-.09-.08l.02-.03c-.08-.05-.13.03-.22-.03v.03c-.1.05-.02-.07-.1-.04l.03-.09s-.15.02-.22,0c.06-.04.14-.04.2-.05-.03-.01-.08-.03-.12-.02,0,0,.02,0,.02,0-.07.04-.13.05-.2.02.08-.16-.16-.11-.17-.25-.14.02-.25-.09-.4-.11.03.14-.04,0-.05.13-.03,0-.05,0-.05,0h0s0,0,0,0c-.03-.03-.06-.06-.09-.09-.02-.04.04-.03.04-.06-.08-.02-.03-.06-.08-.1,0,.05-.03.07-.08.05l.06.07c-.11.07-.09-.12-.2-.05l.04-.04c-.06.03-.21,0-.26.11-.01-.02-.03-.05,0-.06-.14-.01-.29.14-.4.09v-.03s-.03.07-.06.04c0-.01,0-.04,0-.03-.01.01-.05.07-.09.06l.02-.04c-.14-.01-.18.14-.27.19-.03-.09-.14-.09-.2-.08h0c-.15.04-.21.17-.31.28-.14-.05-.28.13-.42.18.03,0,.05.06.04.08-.04,0-.02.11-.08.05h0c-.08-.05-.12.01-.16.05l.08.09c-.23,0-.18.32-.34.31,0,.04-.02.08,0,.12l-.05-.03c-.06.08-.08.12-.12.23l-.03-.04c-.03.06.13.15.11.2l-.09-.02c-.03.11-.15.19-.1.32-.01,0-.04-.02-.04-.03-.02.05-.11.19.02.2-.08-.02-.03.11-.01.18l-.06-.02c.07.06.09.07.1.14-.01.02-.05,0-.03-.01-.04.05.05.05.01.11l-.04-.03c-.01.06,0,.05.05.09.02.04-.02.1-.08.11.03,0,.08.04.06.07-.02,0-.03,0-.04-.02-.04.1.07.14,0,.21-.02,0-.03,0-.04.01,0-.08,0-.14,0-.13-.06,0-.07.06-.15.01.04.05.14.13.12.2,0,0-.01,0-.02,0h0s0,.02.01.03c0,.02-.01.03-.01.05-.05.01-.02.08-.02.11.06-.01.06.03.1-.01,0,0,0,0-.01-.02,0,0,0,0,0-.01h0s0-.05-.01-.07c.03.02.06.04.03.08.04.01.09.02.11.03-.08.05-.11.14-.16.16.05.09.07.22.21.24.02.02-.02.04-.04.05-.02-.01-.02-.03-.04-.03.04.04.06.15.14.13,0,.07-.09,0-.04.07h-.03c-.05.23.31.17.27.42,0-.02,0-.03.01-.04.06.24.33.32.42.55.03.06.07.02.13.02l-.03.06.1-.02c.11,0,.04.24.21.2v-.05s.14.04.11.08c0,0,.03-.04.04,0v.03s.11-.01.11-.01c.07.05-.07.13.05.18.05,0,.16-.06.14-.09-.02,0-.04-.03-.03-.07h.04s0-.02,0-.02c0,0,0,0,0,0,.15.04.3.06.45.08v.02s.01-.02.01-.02c.02,0,.03,0,.05,0,0,.01,0,.03-.02.03.04.05.04-.03.07.03,0,0,0,.01,0,.02l.04-.02s0,.07-.02.05c.07.06.13-.06.15.01h0c.08-.01.05-.05.07-.09.01,0,.03,0,.04,0l.04.13v-.07s.04,0,.04.03c.04-.05,0-.03.02-.07.05.06.14-.03.16.08.02-.05-.05-.04,0-.08.02.12.06-.03.11.02,0,.06-.06.03,0,.08.02-.1.1.01.14,0,0-.02,0-.04.02-.04,0,.03,0,.04-.02.04,0,.01,0,.03.01.04.01,0,0-.06,0-.09.03-.02.08-.01.13-.04,0,.03.14.02.21.04h0c0-.07.06-.07.1-.1.01.05,0,.07-.01.1h.04s.01-.06.04-.07v.06c.07-.02.1-.11.19-.1-.01-.04-.06-.09-.07-.13.01,0,.02,0,.04-.01,0,.02.01.04,0,.05,0,0,.01-.03.03-.03v.06s0-.05.02-.05c.02.04.03.02.04.06,0,0-.03,0-.03.01.03,0,.08,0,.11.03-.01-.02-.02-.05,0-.07.05-.03.04.04.08.04,0-.03.05-.02.02-.08.02,0,.03.02.05.03.02-.04.13-.08.06-.12h0s0,0,0,0c.05-.11.2-.08.26-.17v.02c.04-.06.11-.1.11-.16.01-.01.06,0,.07.02.02-.05,0-.07.08-.09,0,.06.04.01-.01.06.06-.03.09-.02.09-.11.03.05.09.01.09-.02h-.06s.03-.04.06-.06l.05.06c.15-.06.01-.27.18-.28-.03-.06-.07.04-.1-.02.04-.04.16-.05.17-.06.07-.05-.06-.11,0-.18-.03,0-.1-.02-.1-.09.03-.05.13-.02.13.02,0,.01-.01.02-.02.01,0,.02,0,.05.04.04l-.02-.02s.06-.09.1-.06c0-.05-.03-.03-.06,0,.06-.06.05-.11.1-.17-.02,0-.05,0-.05,0,.06-.1-.03-.06-.02-.14.05-.03.09.04.08-.04.04-.04.07,0,.09.03-.03-.08.07-.12.09-.16v.04s0-.04.01-.06h-.06s.02-.03.04-.02c-.03-.03-.09,0-.13-.05.03-.02-.01-.09.06-.09-.04.09.07,0,.07.08,0-.02,0-.03.01-.05,0,0,.01,0,.02.01.08-.08-.07-.05-.05-.14ZM32.82,7.68s0-.03.01-.03c0,0,0,.02.01.04h0s-.02,0-.03,0ZM35.25,9.7s0,0,0-.01c0,0,0,0,.01,0,0,0,0,0-.02.01Z" fill="#ffd402"/>
      <polygon points="32.9 7.7 32.91 7.71 32.92 7.7 32.9 7.69 32.9 7.7" fill="#ffd402"/>
      <polygon points="37.05 9.43 37.04 9.43 37.05 9.43 37.05 9.43" fill="#ffd402"/>
      <path d="M35.6,9.79s.03.06,0,.06c.1.07-.02-.05.08-.04l-.08-.02Z" fill="#ffd402"/>
      <path d="M35.93,9.88s.03-.03,0-.05c-.04.01,0,.04,0,.05Z" fill="#ffd402"/>
      <path d="M37.51,9.13l.04.04s-.02-.02-.04-.04Z" fill="#ffd402"/>
      <path d="M37.94,8.79s0-.04.01-.06v.04s-.01.02-.01.02Z" fill="#ffd402"/>
      <path d="M38.06,5.84l-.06.04s.09-.02.06-.04Z" fill="#ffd402"/>
      <path d="M37.11,4.95s-.01-.08-.05-.06c.02.02.03.06.05.06Z" fill="#ffd402"/>
      <polygon points="33.48 5.32 33.46 5.38 33.48 5.36 33.48 5.32" fill="#ffd402"/>
    </g>
    <g>
      <circle cx="39.02" cy="3.26" r=".14" fill="#ffd402"/>
      <circle cx="36.61" cy="4.49" r=".15" fill="#ffd402"/>
      <circle cx="36.26" cy="7.02" r=".18" fill="#ffd402"/>
      <circle cx="34.69" cy="8.3" r=".14" fill="#ffd402"/>
      <circle cx="32.54" cy="10.72" r=".02" fill="#ffd402"/>
      <circle cx="30.51" cy="10.73" r=".11" fill="#ffd402"/>
      <circle cx="30.64" cy="9.76" r=".06" fill="#ffd402"/>
      <circle cx="33.02" cy="9.46" r=".07" fill="#ffd402"/>
      <circle cx="35.37" cy="7" r=".03" fill="#ffd402"/>
      <circle cx="37.99" cy="6.07" r=".12" fill="#ffd402"/>
      <circle cx="39.58" cy="3.14" r=".17" fill="#ffd402"/>
      <circle cx="39.55" cy="4.18" r=".06" fill="#ffd402"/>
      <circle cx="38.03" cy="5.91" r=".11" fill="#ffd402"/>
      <circle cx="33.87" cy="6.61" r=".07" fill="#ffd402"/>
      <circle cx="32.2" cy="8.84" r=".14" fill="#ffd402"/>
      <circle cx="32.15" cy="11.79" r=".06" fill="#ffd402"/>
      <circle cx="33.11" cy="9.96" r=".15" fill="#ffd402"/>
      <circle cx="34.9" cy="8.43" r=".13" fill="#ffd402"/>
      <circle cx="36.25" cy="7.73" r=".09" fill="#ffd402"/>
      <circle cx="37.49" cy="6.11" r=".13" fill="#ffd402"/>
      <circle cx="36.16" cy="7.27" r=".04" fill="#ffd402"/>
      <circle cx="36.49" cy="5.28" r=".11" fill="#ffd402"/>
      <circle cx="38.6" cy="3.96" r=".18" fill="#ffd402"/>
      <circle cx="41.16" cy="4.73" r=".15" fill="#ffd402"/>
      <circle cx="39.89" cy="5.92" r=".15" fill="#ffd402"/>
      <circle cx="36.31" cy="6.59" r=".1" fill="#ffd402"/>
      <circle cx="34.23" cy="8.93" r=".16" fill="#ffd402"/>
      <circle cx="33.35" cy="11.4" r=".15" fill="#ffd402"/>
      <circle cx="30.77" cy="10.16" r=".18" fill="#ffd402"/>
      <circle cx="30.7" cy="11.92" r=".1" fill="#ffd402"/>
      <circle cx="32.09" cy="11.77" r=".15" fill="#ffd402"/>
      <circle cx="33.44" cy="9.29" r=".06" fill="#ffd402"/>
      <circle cx="36.42" cy="7.61" r=".14" fill="#ffd402"/>
      <circle cx="37.31" cy="6.91" r=".02" fill="#ffd402"/>
      <circle cx="39.99" cy="5.34" r=".15" fill="#ffd402"/>
      <circle cx="41.64" cy="3.26" r=".12" fill="#ffd402"/>
      <circle cx="40.86" cy="2.46" r=".05" fill="#ffd402"/>
      <circle cx="38.11" cy="3.66" r=".05" fill="#ffd402"/>
      <circle cx="35.86" cy="6.31" r=".07" fill="#ffd402"/>
      <circle cx="35.63" cy="7.71" r=".11" fill="#ffd402"/>
      <circle cx="34.23" cy="9.66" r=".08" fill="#ffd402"/>
      <circle cx="31.69" cy="11.67" r=".17" fill="#ffd402"/>
      <circle cx="28.04" cy="11.19" r=".08" fill="#ffd402"/>
      <circle cx="28.63" cy="12.22" r=".07" fill="#ffd402"/>
      <circle cx="31.39" cy="13.85" r=".07" fill="#ffd402"/>
      <circle cx="32.76" cy="13.31" r=".13" fill="#ffd402"/>
      <circle cx="35.02" cy="11.91" r=".03" fill="#ffd402"/>
      <circle cx="36.01" cy="9.66" r=".05" fill="#ffd402"/>
      <circle cx="35.8" cy="7.89" r=".08" fill="#ffd402"/>
      <circle cx="36.25" cy="4.42" r=".02" fill="#ffd402"/>
      <circle cx="39.84" cy="4.24" r=".03" fill="#ffd402"/>
      <circle cx="40.69" cy="2.66" r=".11" fill="#ffd402"/>
      <circle cx="41.34" cy="2.56" r=".03" fill="#ffd402"/>
      <circle cx="39.99" cy="4.36" r=".15" fill="#ffd402"/>
      <circle cx="37.3" cy="3.86" r=".03" fill="#ffd402"/>
      <circle cx="37.11" cy="5.79" r=".17" fill="#ffd402"/>
      <circle cx="36.52" cy="8.74" r=".05" fill="#ffd402"/>
    </g>
  </g>
  <g>
    <circle cx="34.84" cy="6.5" r=".15" fill="#fff"/>
    <circle cx="34.32" cy="6.09" r=".12" fill="#fff"/>
    <circle cx="38.15" cy="7.73" r=".04" fill="#fff"/>
    <circle cx="36.35" cy="6.41" r=".17" fill="#fff"/>
    <circle cx="35.95" cy="5.07" r=".14" fill="#fff"/>
    <circle cx="37" cy="7.93" r=".21" fill="#fff"/>
    <circle cx="35.49" cy="6.64" r=".19" fill="#fff"/>
    <circle cx="36.02" cy="6.84" r=".2" fill="#fff"/>
    <circle cx="34.05" cy="5.66" r=".14" fill="#fff"/>
    <circle cx="33.64" cy="6.88" r=".13" fill="#fff"/>
    <circle cx="33.13" cy="6.9" r=".19" fill="#fff"/>
    <circle cx="34.06" cy="7.36" r=".17" fill="#fff"/>
    <circle cx="33.32" cy="7.86" r=".1" fill="#fff"/>
    <circle cx="33.86" cy="8.45" r=".11" fill="#fff"/>
    <circle cx="33.43" cy="7.56" r=".03" fill="#fff"/>
    <circle cx="33.36" cy="6.91" r=".08" fill="#fff"/>
    <circle cx="35.38" cy="7.4" r=".15" fill="#fff"/>
    <circle cx="35.9" cy="6.93" r=".05" fill="#fff"/>
    <circle cx="34.63" cy="5.31" r=".14" fill="#fff"/>
    <circle cx="36.47" cy="7.41" r=".15" fill="#fff"/>
    <circle cx="34.36" cy="6.01" r=".2" fill="#fff"/>
    <circle cx="33.88" cy="5.45" r=".21" fill="#fff"/>
    <circle cx="37.49" cy="5.44" r=".2" fill="#fff"/>
    <circle cx="35.72" cy="4.98" r=".19" fill="#fff"/>
    <circle cx="34.49" cy="4.99" r=".04" fill="#fff"/>
    <circle cx="35.78" cy="7.05" r=".13" fill="#fff"/>
    <circle cx="34.65" cy="6.49" r=".16" fill="#fff"/>
    <circle cx="33.02" cy="6.55" r=".15" fill="#fff"/>
    <circle cx="32.68" cy="6.38" r=".03" fill="#fff"/>
    <circle cx="34.11" cy="7.27" r=".06" fill="#fff"/>
    <circle cx="33.87" cy="6.02" r=".12" fill="#fff"/>
    <circle cx="34.7" cy="6.81" r=".12" fill="#fff"/>
    <circle cx="35.08" cy="7.3" r=".07" fill="#fff"/>
    <circle cx="35.16" cy="6.14" r=".09" fill="#fff"/>
    <circle cx="36.72" cy="7.09" r=".06" fill="#fff"/>
    <circle cx="35.35" cy="6.82" r=".05" fill="#fff"/>
    <circle cx="33.75" cy="6.31" r=".06" fill="#fff"/>
    <circle cx="36.13" cy="8.17" r=".15" fill="#fff"/>
    <circle cx="36.71" cy="8.83" r=".07" fill="#fff"/>
    <circle cx="33.18" cy="7.58" r=".1" fill="#fff"/>
    <circle cx="36.05" cy="9.28" r=".18" fill="#fff"/>
    <circle cx="33.53" cy="7.75" r=".08" fill="#fff"/>
    <circle cx="34.14" cy="6.83" r=".14" fill="#fff"/>
    <circle cx="35.58" cy="6.13" r=".08" fill="#fff"/>
    <circle cx="34.22" cy="6.56" r=".03" fill="#fff"/>
    <circle cx="34.54" cy="6.78" r=".09" fill="#fff"/>
    <circle cx="35.5" cy="7.23" r=".05" fill="#fff"/>
    <circle cx="33.8" cy="6.82" r=".11" fill="#fff"/>
    <circle cx="35.59" cy="6.56" r=".22" fill="#fff"/>
    <circle cx="35.62" cy="8.07" r=".22" fill="#fff"/>
  </g>
</svg>